<svg id="Layer_1" data-name="Layer 1" xmlns="http://www.w3.org/2000/svg" viewBox="0 0 812 143.09"><defs><style>.cls-1{fill:#ff5100;}.cls-2,.cls-3{fill:#1d1d1b;}.cls-2,.cls-4,.cls-5,.cls-6,.cls-7,.cls-8,.cls-9{fill-rule:evenodd;}.cls-4,.cls-5,.cls-7{fill:#231f20;}.cls-5{opacity:0.3;}.cls-6{fill:#a5cd39;}.cls-7,.cls-9{opacity:0.2;}.cls-8{fill:#f48120;}.cls-9{fill:#fff;}</style></defs><rect class="cls-1" x="237.93" y="78.16" width="573.27" height="4.79"/><path class="cls-2" d="M394.58,577.59H378.82v8h15.76a4.26,4.26,0,0,0,2.49-.52,2.27,2.27,0,0,0,.67-1.87V580a2.23,2.23,0,0,0-.67-1.84,4.26,4.26,0,0,0-2.49-.52Zm-22.65,24.89V572.37h25.75q3.58,0,5.2,1.38a5.6,5.6,0,0,1,1.6,4.46v6.72a5.55,5.55,0,0,1-1.6,4.43c-1.08.93-2.81,1.38-5.2,1.38H378.82v11.74Zm103.92-24.89H460.09V586h15.76a4.26,4.26,0,0,0,2.49-.52,2.28,2.28,0,0,0,.67-1.87V580a2.23,2.23,0,0,0-.67-1.84,4.26,4.26,0,0,0-2.49-.52ZM453.2,602.48V572.37H479q3.58,0,5.2,1.38a5.6,5.6,0,0,1,1.6,4.46v7.07a5.58,5.58,0,0,1-1.6,4.44q-1.62,1.39-5.2,1.39H475l13.89,11.37H478.86l-12.13-11.37h-6.64v11.37Zm84.69,0V572.37h7v30.11Zm60.26,0V572.37h4.78l21.2,17.74c.72.59,1.35,1.15,1.91,1.68a17.17,17.17,0,0,1,1.5,1.6c-.1-1.69-.18-2.89-.22-3.59s-.06-1.24-.06-1.62V572.37h6.29v30.11h-4.78l-22.1-18.6c-.54-.47-1-.9-1.4-1.28a15.14,15.14,0,0,1-1.11-1.17q.14,1.4.21,2.64c0,.82.07,1.53.07,2.15v16.26Zm102.69-24.72v24.72h-7V577.76H680v-5.39h34.69v5.39Zm60.37,24.72V572.37h7v30.11Zm60.26,0V572.37h4.78l21.2,17.74c.72.59,1.35,1.15,1.9,1.68a17.3,17.3,0,0,1,1.51,1.6c-.11-1.69-.18-2.89-.22-3.59s-.06-1.24-.06-1.62V572.37h6.29v30.11h-4.79L830,583.88c-.53-.47-1-.9-1.4-1.28a15.14,15.14,0,0,1-1.11-1.17c.09.93.17,1.81.22,2.64s.06,1.53.06,2.15v16.26ZM938.4,577.76H916.53v19H938.4v-6.7H927V585H945.2v10.36q0,4.14-1.53,5.63t-5.92,1.5H917c-2.93,0-4.9-.5-5.93-1.5s-1.54-2.87-1.54-5.63V579.5c0-2.74.52-4.61,1.54-5.62s3-1.51,5.93-1.51h20.76c2.87,0,4.85.5,5.89,1.48s1.56,2.78,1.56,5.37v.68l-6.8,1.22Z" transform="translate(-134 -468.45)"/><path class="cls-3" d="M556.27,489.22a13,13,0,0,0-2.46-7.37,9.05,9.05,0,0,0-7.78-4.33H469.25V536h76.89a9.53,9.53,0,0,0,6.45-2.8,11.52,11.52,0,0,0,3.68-8.89H479.48V512.61h76.79v-11.7H479.48V489.22Z" transform="translate(-134 -468.45)"/><path class="cls-3" d="M448.77,477.52H372V536h76.8a9.44,9.44,0,0,0,6.35-2.8,11.56,11.56,0,0,0,3.68-8.89V489.1a13,13,0,0,0-2.35-7.37A8.87,8.87,0,0,0,448.77,477.52Zm0,46.78H382.22V489.1h66.55Z" transform="translate(-134 -468.45)"/><path class="cls-3" d="M576.75,477.52H566.51V524.3a12.79,12.79,0,0,0,2.46,7.48,9,9,0,0,0,7.78,4.21H643.3a9.76,9.76,0,0,0,6.45-2.8,11.37,11.37,0,0,0,3.79-8.89H576.75Z" transform="translate(-134 -468.45)"/><path class="cls-3" d="M850.61,477.52H838.06L822,501.38H788l-16.1-23.86H759.33s14.71,22.62,19.11,29.24C774,513.37,759.33,536,759.33,536h12.55L788,512.14h34L838.06,536h12.55s-14.71-22.62-19.11-29.23C835.9,500.14,850.61,477.52,850.61,477.52Z" transform="translate(-134 -468.45)"/><path class="cls-3" d="M740.57,477.52V524.3H674V477.52a9.56,9.56,0,0,0-6.55,2.69,11.44,11.44,0,0,0-3.69,9V524.3a12.79,12.79,0,0,0,2.46,7.48A8.94,8.94,0,0,0,674,536h66.55a9.78,9.78,0,0,0,6.45-2.8,11.37,11.37,0,0,0,3.79-8.89V489.22a12.82,12.82,0,0,0-2.46-7.49A8.94,8.94,0,0,0,740.57,477.52Z" transform="translate(-134 -468.45)"/><path class="cls-3" d="M868.56,489.22h76.79a13,13,0,0,0-2.46-7.37,9.06,9.06,0,0,0-7.78-4.33H858.38V536h76.83a9.51,9.51,0,0,0,6.45-2.8,11.53,11.53,0,0,0,3.69-8.89H868.56V512.61h76.79v-11.7H868.56Z" transform="translate(-134 -468.45)"/><rect class="cls-1" x="236.29" y="79.5" width="575.71" height="3.28"/><path class="cls-4" d="M273.59,493.94c-5.22-2-11.77-3.09-19.62-3.34a136.91,136.91,0,0,0-24.7,1.63,179,179,0,0,0-26.36,6.18,146,146,0,0,0-24.71,10.16q-15,8.12-24.08,16.62-8.66,8.13-10.65,15.55a13,13,0,0,0,3,12.81c3.38,3.73,8.94,6.54,16.67,8.36-4.56-2.1-8-4.45-10.42-7.12a13,13,0,0,1-3.56-9.9q1-12.69,26.48-28.73a160.5,160.5,0,0,1,44.23-18A177.31,177.31,0,0,1,273.59,493.94Z" transform="translate(-134 -468.45)"/><path class="cls-5" d="M273.59,493.94c-24.59-5.38-58.45.43-85,12.26-37,16.5-61.25,42.09-25.5,55.71-4.56-2.1-8-4.45-10.42-7.12a13,13,0,0,1-3.56-9.9q1-12.69,26.48-28.73a160.5,160.5,0,0,1,44.23-18A177.31,177.31,0,0,1,273.59,493.94Z" transform="translate(-134 -468.45)"/><path class="cls-4" d="M177.86,610.85c12.09-.36,22.83-1,32.21-1.79q35.85-3.15,63.36-12.28a123.7,123.7,0,0,0,27.07-11.65,96.1,96.1,0,0,0,21.44-16.79,63.18,63.18,0,0,0,13.39-20.62,45.88,45.88,0,0,0,2.85-23q-3,24.63-21.71,41.92-16.53,15.27-44.16,23.91a330.82,330.82,0,0,1-60.9,12,467.23,467.23,0,0,1-59.55,2c-.69.86-1.73,2-3.13,3.53s-2.44,2.72-3.14,3.55Q169.33,611.16,177.86,610.85Z" transform="translate(-134 -468.45)"/><path class="cls-5" d="M338.18,524.69q-3,24.63-21.71,41.92-16.53,15.27-44.16,23.91a330.82,330.82,0,0,1-60.9,12,467.23,467.23,0,0,1-59.55,2,20.22,20.22,0,0,1,.42,3.56C205.49,609.82,336.51,603,338.18,524.69Z" transform="translate(-134 -468.45)"/><path class="cls-4" d="M308.55,557.62a88.25,88.25,0,0,0,12.34-13.47,58.72,58.72,0,0,0,8.05-15c3.18-8.92,4.25-19.42,3.13-31.49a56.47,56.47,0,0,0-2.3-10.08q-1.44,21.13-10.91,36.94-9.27,15.48-26.34,26.74t-40.3,17.35a212.91,212.91,0,0,1-51.76,6.44l16.22-35.28,58.73-16.72c-7.89.23-19.77.85-35.67,1.79s-27.85,1.59-35.65,1.82q-7.77,11.4-23.42,34.21-15.33,22.32-23.4,34.18,23.43-.29,41.67-1.8a324.12,324.12,0,0,0,39.73-5.62q41.6-8.8,69.88-30Zm3.68-74.85q7.49,7.11,4.83,17.18Q314,511.4,298,525.7q9.42-11.72,11.2-20.82c1.19-5.87-.07-10.8-3.74-14.79S296,483.3,288,481.41s-18-2.67-29.9-2.49c-8,.12-17.95,1.61-29.9,4.56a309.41,309.41,0,0,0-35.59,11.2,294.43,294.43,0,0,0-33.84,15.18q-16.16,8.6-24.75,16.39a133.85,133.85,0,0,1,22.81-19.18A196.89,196.89,0,0,1,187.62,490a220.34,220.34,0,0,1,37-12.71,213.59,213.59,0,0,1,41.4-6.15,98,98,0,0,1,26.21,2.3Q305.58,476.47,312.23,482.77Z" transform="translate(-134 -468.45)"/><path class="cls-5" d="M329.77,487.58q-1.44,21.15-10.9,36.95Q309.6,540,292.52,551.27t-40.3,17.34a212.32,212.32,0,0,1-51.75,6.45l16.21-35.28,58.74-16.73c-.25,0-66.34,10.55-66.25,10.8S177.8,583,177.54,584c34.11,5.25,155.13-3.16,152.23-96.38ZM134,526.23c63.77-63.31,229.39-71.78,164-.55q9.4-11.71,11.19-20.82,1.79-8.82-3.74-14.79c-3.58-3.89-9.42-6.79-17.47-8.68s-18-2.67-29.9-2.49c-8,.12-17.95,1.61-29.9,4.56a310.51,310.51,0,0,0-35.58,11.19,297.13,297.13,0,0,0-33.85,15.18Q142.61,518.44,134,526.23Z" transform="translate(-134 -468.45)"/><path class="cls-5" d="M329.77,487.58q-1.44,21.15-10.9,36.95Q309.6,540,292.52,551.27t-40.3,17.34a212.32,212.32,0,0,1-51.75,6.45l16.21-35.28c.3.06-7.52-6-7.51-5.93S177.8,583,177.54,584c34.11,5.25,155.13-3.16,152.23-96.38ZM134,526.23c64.29-62,230.87-72.45,164-.55q9.4-11.71,11.19-20.82,1.79-8.82-3.74-14.79c-3.58-3.89-9.42-6.79-17.47-8.68s-18-2.67-29.9-2.49c-8,.12-17.95,1.61-29.9,4.56a310.51,310.51,0,0,0-35.58,11.19,297.13,297.13,0,0,0-33.85,15.18q-14.19,7.56-22.55,14.5C135.43,525,134.7,525.6,134,526.23Z" transform="translate(-134 -468.45)"/><path class="cls-5" d="M329.77,487.58q-1.44,21.15-10.9,36.95Q309.6,540,292.52,551.27t-40.3,17.34a212.32,212.32,0,0,1-51.75,6.45c-.05,0-22.69,8.67-22.93,8.9C211.65,589.21,332.67,580.8,329.77,487.58Z" transform="translate(-134 -468.45)"/><path class="cls-6" d="M273.59,491.17c-5.22-1.94-11.77-3.06-19.62-3.31a137.77,137.77,0,0,0-24.7,1.62,180.06,180.06,0,0,0-26.36,6.11,147.58,147.58,0,0,0-24.71,10.06q-15,8-24.08,16.47-8.66,8-10.65,15.4a12.81,12.81,0,0,0,3,12.68c3.38,3.69,8.94,6.47,16.67,8.28-4.56-2.08-8-4.4-10.42-7.05a12.79,12.79,0,0,1-3.56-9.81q1-12.55,26.48-28.44a161.27,161.27,0,0,1,44.23-17.86A179.25,179.25,0,0,1,273.59,491.17Z" transform="translate(-134 -468.45)"/><path class="cls-7" d="M273.59,491.17c-24.59-5.33-58.45.42-85,12.14-37,16.34-61.25,41.68-25.5,55.17-4.56-2.08-8-4.4-10.42-7.05a12.79,12.79,0,0,1-3.56-9.81q1-12.55,26.48-28.44a161.27,161.27,0,0,1,44.23-17.86A179.25,179.25,0,0,1,273.59,491.17Z" transform="translate(-134 -468.45)"/><path class="cls-6" d="M177.86,606.94c12.09-.36,22.83-1,32.21-1.77q35.85-3.12,63.36-12.16a124.87,124.87,0,0,0,27.07-11.54,95.59,95.59,0,0,0,21.44-16.63,62.39,62.39,0,0,0,13.39-20.41,45,45,0,0,0,2.85-22.81q-3,24.39-21.71,41.51-16.53,15.12-44.16,23.68a334.12,334.12,0,0,1-60.9,11.83,472.93,472.93,0,0,1-59.55,2q-1,1.26-3.13,3.49c-1.39,1.5-2.44,2.69-3.14,3.51Q169.33,607.26,177.86,606.94Z" transform="translate(-134 -468.45)"/><path class="cls-7" d="M338.18,521.62q-3,24.39-21.71,41.51-16.53,15.12-44.16,23.68a334.12,334.12,0,0,1-60.9,11.83,472.93,472.93,0,0,1-59.55,2,19.69,19.69,0,0,1,.42,3.52C205.49,605.92,336.51,599.2,338.18,521.62Z" transform="translate(-134 -468.45)"/><path class="cls-8" d="M308.55,554.23a87.76,87.76,0,0,0,12.34-13.34,57.88,57.88,0,0,0,8.05-14.82c3.18-8.83,4.25-19.23,3.13-31.18a55.42,55.42,0,0,0-2.3-10q-1.44,20.94-10.91,36.58-9.27,15.33-26.34,26.48t-40.3,17.18a215,215,0,0,1-51.76,6.38l16.22-34.94L275.41,520c-7.89.23-19.77.85-35.67,1.78s-27.85,1.58-35.65,1.8q-7.77,11.29-23.42,33.87-15.33,22.11-23.4,33.85c15.62-.18,29.51-.8,41.67-1.78A326.62,326.62,0,0,0,238.67,584q41.6-8.73,69.88-29.75Zm3.68-74.12a16.12,16.12,0,0,1,4.83,17q-3,11.33-19.07,25.5,9.42-11.6,11.2-20.62c1.19-5.81-.07-10.69-3.74-14.64s-9.42-6.73-17.47-8.6-18-2.65-29.9-2.46c-8,.11-17.95,1.59-29.9,4.51a311.94,311.94,0,0,0-35.59,11.09,296.48,296.48,0,0,0-33.84,15q-16.16,8.52-24.75,16.24a133.78,133.78,0,0,1,22.81-19,198,198,0,0,1,30.81-16.95,222.65,222.65,0,0,1,37-12.59,215,215,0,0,1,41.4-6.09,99.3,99.3,0,0,1,26.21,2.28Q305.58,473.87,312.23,480.11Z" transform="translate(-134 -468.45)"/><path class="cls-9" d="M329.77,484.88q-1.44,20.94-10.9,36.58-9.27,15.33-26.35,26.48t-40.3,17.18a214.88,214.88,0,0,1-51.75,6.38l16.21-34.94L275.42,520c-.25,0-66.34,10.44-66.25,10.7.09.09-31.37,48.65-31.63,49.61,34.11,5.2,155.13-3.12,152.23-95.43ZM134,523.15c63.77-62.7,229.39-71.09,164-.55Q307.4,511,309.19,502q1.79-8.72-3.74-14.64c-3.58-3.85-9.42-6.73-17.47-8.6s-18-2.64-29.9-2.46c-8,.11-17.95,1.59-29.9,4.51a311.19,311.19,0,0,0-35.58,11.09,295.7,295.7,0,0,0-33.85,15Q142.61,515.43,134,523.15Z" transform="translate(-134 -468.45)"/><path class="cls-9" d="M329.77,484.88q-1.44,20.94-10.9,36.58-9.27,15.33-26.35,26.48t-40.3,17.18a214.88,214.88,0,0,1-51.75,6.38c-.05,0-22.69,8.59-22.93,8.81C211.65,585.51,332.67,577.19,329.77,484.88Z" transform="translate(-134 -468.45)"/></svg>